<svg height="100%" width="100%" id="svg" viewBox="0 0 1440 700" xmlns="http://www.w3.org/2000/svg" class="transition duration-300 ease-in-out delay-150"><defs><linearGradient id="gradient"><stop offset="5%" stop-color="#abb8c388"></stop><stop offset="95%" stop-color="#00000088"></stop></linearGradient></defs><path d="M 0,700 C 0,700 0,233 0,233 C 49.09187322727833,202.40283635466767 98.18374645455665,171.8056727093353 150,184 C 201.81625354544335,196.1943272906647 256.3568874090517,251.18014551732642 319,264 C 381.6431125909483,276.8198544826736 452.3887039092366,247.47374522135894 505,247 C 557.6112960907634,246.52625477864106 592.0882969540017,274.9248735972377 633,272 C 673.9117030459983,269.0751264027623 721.2581082747564,234.8267603896905 784,208 C 846.7418917252436,181.1732396103095 924.8792699469725,161.7680848440005 986,157 C 1047.1207300530275,152.2319151559995 1091.2248119373537,162.10090023430757 1135,194 C 1178.7751880626463,225.89909976569243 1222.2214823036131,279.82831421876926 1273,290 C 1323.7785176963869,300.17168578123074 1381.8892588481935,266.58584289061537 1440,233 C 1440,233 1440,700 1440,700 Z" stroke="none" stroke-width="0" fill="url(#gradient)" class="transition-all duration-300 ease-in-out delay-150"></path><defs><linearGradient id="gradient"><stop offset="5%" stop-color="#abb8c3ff"></stop><stop offset="95%" stop-color="#000000ff"></stop></linearGradient></defs><path d="M 0,700 C 0,700 0,466 0,466 C 38.951239363669984,506.05130102355406 77.90247872733997,546.1026020471081 131,546 C 184.09752127266003,545.8973979528919 251.34132445431004,505.6408928351215 315,469 C 378.65867554568996,432.3591071648785 438.73222345542,399.33382661240597 492,394 C 545.26777654458,388.66617338759403 591.7297817240103,411.0238007152547 641,455 C 690.2702182759897,498.9761992847453 742.3486496485388,564.5709705265754 806,544 C 869.6513503514612,523.4290294734246 944.8756196818349,416.6923171784437 988,380 C 1031.124380318165,343.3076828215563 1042.1488716241213,376.65976075964977 1090,427 C 1137.8511283758787,477.34023924035023 1222.5288938216795,544.6686397829573 1287,554 C 1351.4711061783205,563.3313602170427 1395.7355530891602,514.6656801085214 1440,466 C 1440,466 1440,700 1440,700 Z" stroke="none" stroke-width="0" fill="url(#gradient)" class="transition-all duration-300 ease-in-out delay-150"></path></svg>